<svg xmlns="http://www.w3.org/2000/svg" viewBox="0 0 500 500">
	<title>Special Operations Charity Network</title>
  <defs>
    <linearGradient id="a" x1="278.4" x2="375.4" y1="190.9" y2="127.9" gradientUnits="userSpaceOnUse">
      <stop offset="0" stop-color="#d1d3d4"/>
      <stop offset=".1" stop-color="#e2e3e4"/>
      <stop offset=".3" stop-color="#f2f3f3"/>
      <stop offset=".5" stop-color="#fcfcfc"/>
      <stop offset=".7" stop-color="#fff"/>
    </linearGradient>
    <linearGradient href="#a" id="c" x1="311.3" x2="409.7" y1="246.9" y2="183"/>
    <linearGradient href="#a" id="d" x1="246.8" x2="322.3" y1="129.7" y2="80.7"/>
    <linearGradient id="e" x1="147.3" x2="283.6" y1="385.2" y2="222.8" gradientUnits="userSpaceOnUse">
      <stop offset=".1" stop-color="#fff"/>
      <stop offset=".3" stop-color="#f9f9f9"/>
      <stop offset=".4" stop-color="#eaeaeb"/>
      <stop offset=".5" stop-color="#e5e6e7"/>
      <stop offset=".6" stop-color="#fcfcfc"/>
      <stop offset=".7" stop-color="#fff"/>
      <stop offset=".8" stop-color="#fcfcfc"/>
      <stop offset=".9" stop-color="#f5f5f6"/>
      <stop offset="1" stop-color="#d1d3d4"/>
    </linearGradient>
    <linearGradient id="f" x1="177.2" x2="223" y1="406.6" y2="327.3" gradientUnits="userSpaceOnUse">
      <stop offset=".6" stop-color="#fff"/>
      <stop offset=".7" stop-color="#fbfbfb"/>
      <stop offset=".8" stop-color="#f1f2f2"/>
      <stop offset=".9" stop-color="#e0e1e2"/>
      <stop offset="1" stop-color="#d1d3d4"/>
    </linearGradient>
    <linearGradient id="g" x1="263.5" x2="381.8" y1="446.6" y2="224.2" gradientUnits="userSpaceOnUse">
      <stop offset="0" stop-color="#fff"/>
      <stop offset=".2" stop-color="#f9fafa"/>
      <stop offset=".4" stop-color="#e3e4e5"/>
      <stop offset=".6" stop-color="#fff"/>
      <stop offset=".8" stop-color="#d1d3d4"/>
      <stop offset="1" stop-color="#fff"/>
    </linearGradient>
    <linearGradient id="h" x1="233.7" x2="286.4" y1="100.8" y2="66.6" gradientUnits="userSpaceOnUse">
      <stop offset=".1" stop-color="#56120f"/>
      <stop offset=".1" stop-color="#691311"/>
      <stop offset=".3" stop-color="#981618"/>
      <stop offset=".5" stop-color="#bd181d"/>
      <stop offset=".7" stop-color="#d71a21"/>
      <stop offset=".9" stop-color="#e71b23"/>
      <stop offset="1" stop-color="#ed1c24"/>
    </linearGradient>
    <linearGradient id="i" x1="262.5" x2="352.6" y1="161.2" y2="102.7" gradientUnits="userSpaceOnUse">
      <stop offset=".1" stop-color="#56120f"/>
      <stop offset=".3" stop-color="#931617"/>
      <stop offset=".4" stop-color="#b4181c"/>
      <stop offset=".5" stop-color="#cd191f"/>
      <stop offset=".7" stop-color="#df1b22"/>
      <stop offset=".8" stop-color="#e91b23"/>
      <stop offset="1" stop-color="#ed1c24"/>
    </linearGradient>
    <linearGradient id="j" x1="293.1" x2="392.5" y1="218" y2="153.5" gradientUnits="userSpaceOnUse">
      <stop offset=".1" stop-color="#56120f"/>
      <stop offset=".2" stop-color="#741413"/>
      <stop offset=".3" stop-color="#991618"/>
      <stop offset=".4" stop-color="#b7181c"/>
      <stop offset=".5" stop-color="#cf1a1f"/>
      <stop offset=".7" stop-color="#df1b22"/>
      <stop offset=".8" stop-color="#e91b23"/>
      <stop offset="1" stop-color="#ed1c24"/>
    </linearGradient>
    <linearGradient id="k" x1="330.3" x2="421.3" y1="274.9" y2="215.8" gradientUnits="userSpaceOnUse">
      <stop offset="0" stop-color="#56120f"/>
      <stop offset=".8" stop-color="#ed1c24"/>
    </linearGradient>
    <linearGradient id="l" x1="140.5" x2="210.9" y1="378.9" y2="308.5" gradientUnits="userSpaceOnUse">
      <stop offset=".5" stop-color="#ec1c24"/>
      <stop offset=".9" stop-color="#981b1e"/>
    </linearGradient>
    <linearGradient id="m" x1="276" x2="326" y1="356.9" y2="262.9" gradientUnits="userSpaceOnUse">
      <stop offset=".1" stop-color="#56120f"/>
      <stop offset=".2" stop-color="#781413"/>
      <stop offset=".3" stop-color="#9c1618"/>
      <stop offset=".4" stop-color="#b9181c"/>
      <stop offset=".5" stop-color="#d01a20"/>
      <stop offset=".6" stop-color="#e01b22"/>
      <stop offset=".8" stop-color="#ea1b23"/>
      <stop offset="1" stop-color="#ed1c24"/>
    </linearGradient>
    <linearGradient id="n" x1="213.8" x2="266.3" y1="429.3" y2="338.4" gradientUnits="userSpaceOnUse">
      <stop offset=".4" stop-color="#ec1c24"/>
      <stop offset=".9" stop-color="#981b1e"/>
    </linearGradient>
    <linearGradient id="o" x1="342" x2="387.4" y1="382.6" y2="297.3" gradientUnits="userSpaceOnUse">
      <stop offset=".1" stop-color="#56120f"/>
      <stop offset=".2" stop-color="#841515"/>
      <stop offset=".4" stop-color="#aa171a"/>
      <stop offset=".5" stop-color="#c7191e"/>
      <stop offset=".7" stop-color="#dc1a21"/>
      <stop offset=".8" stop-color="#e81b23"/>
      <stop offset=".9" stop-color="#ed1c24"/>
    </linearGradient>
    <linearGradient id="p" x1="288.6" x2="332.3" y1="439" y2="363.3" gradientUnits="userSpaceOnUse">
      <stop offset=".5" stop-color="#ec1c24"/>
      <stop offset=".6" stop-color="#e81b23"/>
      <stop offset=".7" stop-color="#dc1b22"/>
      <stop offset=".8" stop-color="#c81b21"/>
      <stop offset=".9" stop-color="#ad1b1f"/>
      <stop offset="1" stop-color="#981b1e"/>
    </linearGradient>
    <linearGradient id="q" x1="70" x2="128.2" y1="295" y2="246.2" gradientUnits="userSpaceOnUse">
      <stop offset=".4" stop-color="#13375f"/>
      <stop offset=".7" stop-color="#13355d"/>
      <stop offset=".8" stop-color="#132e56"/>
      <stop offset=".9" stop-color="#13234a"/>
      <stop offset="1" stop-color="#131339"/>
      <stop offset="1" stop-color="#131137"/>
    </linearGradient>
    <linearGradient id="r" x1="215.5" x2="278.4" y1="197.5" y2="150.1" gradientUnits="userSpaceOnUse">
      <stop offset=".2" stop-color="#131137"/>
      <stop offset=".3" stop-color="#182c61"/>
      <stop offset=".4" stop-color="#1b3c7a"/>
      <stop offset=".6" stop-color="#0a6eab"/>
      <stop offset=".9" stop-color="#1d4384"/>
    </linearGradient>
    <linearGradient id="s" x1="143.6" x2="231.2" y1="272.5" y2="178.6" gradientUnits="userSpaceOnUse">
      <stop offset=".2" stop-color="#131137"/>
      <stop offset=".3" stop-color="#182c61"/>
      <stop offset=".4" stop-color="#1b3c7a"/>
      <stop offset=".5" stop-color="#1a4989"/>
      <stop offset=".6" stop-color="#0e64a1"/>
      <stop offset=".7" stop-color="#0a6eab"/>
      <stop offset=".8" stop-color="#0b639c"/>
      <stop offset=".9" stop-color="#104775"/>
      <stop offset="1" stop-color="#13375f"/>
    </linearGradient>
    <linearGradient id="t" x1="252.3" x2="252.3" y1="286.7" y2="207.6" gradientUnits="userSpaceOnUse">
      <stop offset="0" stop-color="#b1b3b6"/>
      <stop offset=".1" stop-color="#bcbec1"/>
      <stop offset=".2" stop-color="#d9dadc"/>
      <stop offset=".3" stop-color="#eeeeef"/>
      <stop offset=".4" stop-color="#fafafb"/>
      <stop offset=".5" stop-color="#fff"/>
      <stop offset=".6" stop-color="#fafafb"/>
      <stop offset=".7" stop-color="#eeeeef"/>
      <stop offset=".8" stop-color="#d9dadc"/>
      <stop offset=".9" stop-color="#bcbec1"/>
      <stop offset="1" stop-color="#b1b3b6"/>
    </linearGradient>
    <radialGradient id="b">
      <stop offset=".8" stop-color="#f1f1f1"/>
      <stop offset="1" stop-color="#b1b3b6"/>
    </radialGradient>
     <filter id="shadow">
      <feDropShadow dx="4" dy="4" stdDeviation="3" flood-color="hsl(0 0% 0% / .5)" />
    </filter>
  </defs>
  <circle cx="250" cy="250" r="250" fill="#231f20"/>
  <path fill="url(#b)" d="M250 4.1a245.9 245.9 0 1 0 0 491.8A245.9 245.9 0 0 0 250 4Zm0 423.5a177.6 177.6 0 1 1 0-355.2 177.6 177.6 0 0 1 0 355.2Z"/>
  <path fill="#231f20" d="M57.5 237.9v.9c.1.2.4.6.9 1 .4.5.6.9.5 1.3-.1 1.1-1 1.6-2.7 1.4l-10.9-1.3c-.6 0-1-.3-1.4-.6-.3-.4-.5-.8-.4-1.3 0-.4.2-.7.5-1 .3-.2.8-.3 1.4-.4 1.8-.3 3.5-.8 5-1.5 1.7-.7 3-1.5 4.2-2.6 1.2-1 2-2.3 2.5-3.8l3.4.4c-.1 1.6-.8 3.4-2 5.2l-.8 1.5-.2.8ZM41.7 235c.7-.7 1.4-1.5 2-2.4l2.8-4.8c1.2-2 2.2-3.5 3-4.2 1.1-1 2.4-1.6 3.7-1.4a4 4 0 0 1 2.9 1.5c.7.9 1 2.2 1.3 4l3.4.3a17.9 17.9 0 0 0-1.1-8.1 13.6 13.6 0 0 0-11.3-8.6c-3.4-.3-6.4.5-9.2 2.5-1 .8-1.9 1.7-2.6 2.6-.8.9-1.6 2.2-2.6 3.9a93.8 93.8 0 0 1-3.3 5.4 8 8 0 0 1-2.4 2.3c-.8.5-1.7.7-2.7.5-1 0-2-.5-2.5-1.2-.7-.8-1-1.8-1.3-3l-3.4-.4c-.2 3.4.3 6.4 1.7 9a12 12 0 0 0 4.2 4.4c1.8 1.1 3.8 1.8 6.1 2.1 4.4.5 8.2-1 11.3-4.4ZM26 217a14 14 0 0 1 6.1-2.4l1.2-.1.7-.4c.3-.3.4-.7.5-1 0-.6-.1-1-.4-1.4a2 2 0 0 0-1.4-.7l-9.8-1.1c-.9 0-1.5 0-2 .2-.3.2-.6.5-.6 1s0 1 .5 1.3l.8.8c.2.2.3.5.3.9l-.4 1-1.8 3.5a17 17 0 0 0-.8 3l3.3.4c.8-2.1 2-3.8 3.8-5Zm-1.5-18.1c.7.2 1.4 0 1.9-.7l.7-1 .4-.2c.4-.2 1-.1 1.6 0l28.7 8.9c.7.2 1.2.4 1.4.7l.2.5v1.2c.1.8.5 1.4 1.3 1.6.5.2.9.1 1.3-.2s.6-.8.8-1.5l.3-.7 3.9-12.8.3-1c.2-.8.3-1.5.2-2-.2-.5-.5-.9-1-1-.8-.3-1.5 0-2 .9l-.8 1.2-.4.3c-.5.2-1 .2-1.8 0l-33.7-10.4-4 12.8-.2.7c-.2.7-.2 1.3 0 1.8 0 .4.4.7.9.9Zm8.8-19.6c.5-.3 1-.4 1.4-.4.5 0 1.2.1 2.1.4l9.2 2.8c1.3.4 2.2.9 2.8 1.5.4.4.6.8.8 1.2v2l3.1.9c1.1-3.7 1.6-6.6 1.5-8.7-.2-2.6-1-4.9-2.5-6.7A13 13 0 0 0 45 168c-2.6-.8-5-.8-7.3-.1-2.1.7-4 2-5.5 4a26.4 26.4 0 0 0-3.8 8.3l3.1 1c.4-1 1-1.6 1.7-2Zm46-22.6 3 1.5 5.7-11-9.3-5c-.8-.4-1.3-.5-1.7-.5-.4 0-.8.3-1 .8-.2.4-.3.7-.2 1 .1.4.4.8.9 1.3 1 1 1.6 2 2 2.7a10.8 10.8 0 0 1 .7 9.2ZM72 145.1l-10-5.3c-1-.5-1.5-.7-1.8-.7-.5 0-1 .3-1.2.8-.3.5-.3.9-.2 1.2.2.4.5.8 1.1 1.3.9.8 1.5 1.5 1.8 2.3.3.8.5 1.9.4 3.2l3.1 1.6c.7-.8 1.5-1.3 2.5-1.5.9-.2 2-.1 3.5.2.6.2 1.1.2 1.5.1.4-.1.7-.4.9-.8.2-.5.2-.9 0-1.2-.2-.4-.7-.8-1.6-1.2Zm-18.4-8.3c1.8-.7 3.9-1 6.3-.5H61c.3 0 .5-.3.7-.7.3-.5.3-.9.2-1.2-.2-.4-.5-.7-1-1l-9.5-5-5.6 10.8 3.1 1.6c1.3-2 2.9-3.3 4.6-4Zm-15.2 20c.8.4 1.4.3 2-.3l1-.8.4-.2c.4 0 .9.1 1.5.4L70 170c.6.3 1 .7 1.1 1l.2.5-.2 1.2c-.1.8.2 1.4.9 1.8.4.2.9.2 1.3 0a3 3 0 0 0 1.1-1.3l.4-.7 6.2-11.8-36.3-19-6.2 11.8-.4.7c-.3.6-.5 1.2-.4 1.7s.3.8.7 1ZM73 105.4c.8-.4 1.8-.6 2.8-.7a17 17 0 0 1 5.5.6c1 .2 2.2.6 3.7 1.3.7.3 1.2.4 1.6.3.4 0 .8-.2 1.1-.6.3-.4.4-.8.3-1.3 0-.5-.4-1-1-1.5L77 96c-.5-.4-1-.6-1.4-.6-.4 0-.8.3-1.1.7-.4.5-.5 1-.3 1.5l.4.8c.2.5.1 1-.2 1.5a69.8 69.8 0 0 0-6.5 4.8l2.9 2.2c.6-.6 1.3-1.1 2.1-1.4Zm25.8 23 2.9 2.2a12.5 12.5 0 0 0 2.2-9.4c-.2-1.5-.6-3-1.2-4.2a7.2 7.2 0 0 0-2-2.9 2 2 0 0 0-1.3-.4c-.5 0-.9.2-1.2.6-.2.3-.3.7-.3 1 0 .5.3 1 .6 1.5a10.6 10.6 0 0 1 2 6.6c-.3 2-.8 3.7-1.7 5Zm-32-.8c1.6 2.2 3.6 4.3 6 6.2 3.2 2.5 6.4 4.2 9.6 5a16.5 16.5 0 0 0 17.8-6.2l-3-2.3c-.3.5-.7.8-1 1a3 3 0 0 1-1.4.3l-1.5-.3c-.5-.1-1-.4-1.3-.6l-1-.8-19.6-15.2c-1.3-1-2-2-2.4-3-.3-1-.2-2 .4-3l-2.9-2.3-.4.6a13.8 13.8 0 0 0-2.6 6.1 18.8 18.8 0 0 0 3.3 14.5Zm18.8-37.2 1-.5h.6c.4 0 .8.4 1.3.9l20.8 21.7c.5.5.7 1 .8 1.4v.4l-.6 1.1c-.4.8-.3 1.4.3 2 .3.4.7.5 1.2.5.5-.1 1-.4 1.5-.9l.5-.5 9.7-9.3.6-.5c.5-.5.8-1 .9-1.5 0-.4 0-.9-.4-1.2-.5-.6-1.2-.7-2-.4l-1 .5a1 1 0 0 1-.6 0c-.4 0-.8-.3-1.3-.8L98 81.6c-.5-.5-.7-1-.8-1.4v-.5l.6-1c.4-.8.3-1.5-.3-2-.3-.4-.7-.6-1.2-.5a3 3 0 0 0-1.5.9l-.5.5-9.7 9.3-.6.5a3 3 0 0 0-1 1.4c0 .5.1 1 .5 1.3.5.6 1.2.7 2 .3Zm47.3-8.5-5.5 3.9 1.4 3.4 6.9-4.8 3.2 3 .6.7.4.8c0 .3-.1.7-.4 1l-.4 1.3c0 .3 0 .6.3.9.3.4.6.6 1.1.6.5 0 1-.1 1.4-.4l12.3-8.6c1.3-1 1.6-1.8 1-2.7-.2-.3-.4-.5-.7-.5H153c-.6.2-1.1.2-1.5 0l-1.4-1-27-24.2-10 7 1 2.8 18.6 16.8Zm-8.7 18.9c-.5.8-.6 1.5-.3 2 .3.4.8.6 1.3.6a3 3 0 0 0 1.7-.6l6.3-4.4c1.2-.8 1.5-1.7.9-2.5-.4-.6-1-.8-1.7-.6l-1.1.2c-1.3.2-2.3-.2-3-1.2-.3-.4-.5-.9-.7-1.5L120.7 74l-4.8-4.2 8.6 24.2c.5 1.3.8 2.4.8 3.4 0 .6-.1 1.2-.3 1.6-.1.5-.4 1.1-1 1.9Zm60-31.1-5.2-11.1c-.2-.6-.5-1-.7-1.1-.4-.3-.9-.4-1.4-.1-.5.2-.8.5-.9 1 0 .4 0 1.2.2 2.3.2 1.5.2 2.9 0 4.2a10 10 0 0 1-.9 3.5 6 6 0 0 1-1 1.5l-2 1.6 1.5 3 10.4-4.8Zm-42.4-22 1.3-.1.4.1c.4.2.7.6 1 1.3L157 76.2c.3.7.4 1.2.3 1.6l-.1.4-1 .9c-.5.6-.7 1.2-.3 2 .2.4.5.7 1 .8.5 0 1 0 1.7-.4l.7-.3 12.1-5.7-15-32c-.3-.7-.4-1.2-.2-1.7l.2-.5 1.1-1c.8-.5 1-1.2.6-2-.2-.5-.6-.8-1.2-.8-.5 0-1 0-1.9.4l-1 .5-12 5.6-.8.4c-.6.3-1 .6-1.3 1-.2.5-.2.9 0 1.3.3.8.9 1.1 1.7 1ZM202 60.1c3.5 2.4 7.5 3.4 12 2.9l-.7-3.3c-1 0-1.8-.3-2.3-.8-.6-.7-1-1.8-1.3-3.6l-5-26.4c-.2-1.2-.1-2 .2-2.8.3-.7.9-1.3 1.8-1.8L206 21a16.8 16.8 0 0 0-9.9 6.7c-1.5 2.2-2.6 4.9-3.1 7.8-.5 3-.4 6.2.2 9.6a21.9 21.9 0 0 0 8.7 14.9Zm18.2-36.8a16.7 16.7 0 0 0-11.6-2.7l.6 3.2 1.5.5c.4.1.7.4 1 .8a5 5 0 0 1 1 2.4l4.9 26.4c.3 1.6.3 2.9-.1 3.8l-.7 1-1 .6.5 3.2c4.4-1.1 7.7-3.4 10.1-7 3.2-4.5 4.1-10.1 2.8-17-1.3-7-4.3-12-9-15.2Zm42.1 18.8c2.5-.9 4.4-2.3 5.8-4.2a13 13 0 0 0 2.2-7.5c0-2.8-.6-5.1-2-7-1.2-2-3-3.3-5.2-4.3-2-.8-5-1.2-9.1-1.3l-.1 3.2c1 .2 1.8.6 2.3 1.1.4.4.7.8.8 1.3.2.5.2 1.2.2 2.1l-.1 9.6c0 1.3-.3 2.4-.7 3.2-.3.4-.6.8-1 1l-1.8.6V43c3.8 0 6.7-.3 8.7-1Zm-10.5 16.7c.9 0 1.5-.1 2-.4.4-.3.7-.7.7-1.2 0-.9-.4-1.4-1.4-1.7l-1.4-.4-.4-.4c-.3-.3-.5-.9-.4-1.7l.5-35.2-13.3-.3h-.8a3 3 0 0 0-1.7.4c-.4.3-.6.7-.6 1.2 0 .8.4 1.3 1.2 1.6l1.1.4.4.4c.2.3.3.8.3 1.5l-.5 30c0 .8-.1 1.3-.4 1.6a1 1 0 0 1-.3.3l-1.2.4c-.8.3-1.2.8-1.2 1.6 0 .5.2 1 .6 1.2.3.3.9.4 1.6.4h.8l13.4.3h1Zm50.7-29.4c1.3 1.5 2 3.4 2.3 5.8 0 .6.2 1 .4 1.2.1.3.4.4.9.5.5 0 .9 0 1.2-.2.3-.2.5-.7.6-1.3l2-10.4-11.9-2.3-.7 3.4c2.3.7 4 1.8 5.2 3.3Zm2 23.8c-.1-.4-.5-.6-1-.8-.4 0-.8 0-1 .2-.4.2-.7.6-1 1.1-.7 1.2-1.4 2.2-2 2.9a10.8 10.8 0 0 1-8.7 3.2l-.6 3.1 12.3 2.4 2-10.4c.2-.8.2-1.4 0-1.7Zm-10.8-9c1 .4 1.6 1 2.1 1.8.5.9.8 2 .8 3.4 0 .7.2 1.2.4 1.5.2.4.5.6 1 .7.5 0 1 0 1.2-.3s.5-1 .7-1.9l2.2-11.2c.2-1 .2-1.5.1-1.8-.1-.6-.5-.9-1.1-1-.5-.1-1 0-1.2.2-.3.2-.6.7-1 1.4-.4 1-1 1.9-1.7 2.4-.6.5-1.6 1-2.8 1.3l-.7 3.4Zm-20 15.5.8.2 13 2.5 7.9-40.2-13.1-2.6-.8-.1c-.7-.2-1.3-.1-1.7 0-.4.3-.7.6-.8 1-.2.9.1 1.5.9 2l1 .5.3.4c.2.4.2 1 0 1.6l-5.7 29.5c-.1.7-.3 1.2-.6 1.5a1 1 0 0 1-.4.2l-1.2.2c-.9.1-1.4.6-1.5 1.4-.1.5 0 .9.3 1.2.4.4.9.6 1.6.7ZM321 32l.2.4c0 .4 0 1-.3 1.6l-11.3 27.8c-.3.6-.6 1-1 1.3a1 1 0 0 1-.4.2l-1.2-.1c-.9 0-1.4.3-1.7 1-.2.5-.2 1 0 1.3.3.4.8.8 1.4 1l.8.3 12.4 5.1 1 .4c.7.3 1.4.5 1.8.4.6-.1 1-.4 1.2-.9.3-.8.1-1.5-.7-2l-1.1-1c-.2 0-.2-.2-.3-.5-.2-.4 0-1 .2-1.7L335.4 34 323 29l-.7-.3c-.7-.3-1.3-.4-1.7-.3-.5.1-.8.4-1 .9-.3.7-.2 1.4.5 2l.9.8Zm17.2 8.3c.2.8 0 1.7-.4 2.9l-3 7.4a7 7 0 0 1-1 1.8c-.3.3-.7.6-1.2.8-.6.2-1.4.1-2.5-.1l-1.2 3c1 .5 1.6 1.2 1.8 2a4 4 0 0 1 0 2.3c0 .2-.2.8-.7 1.8l-1.9 4.7a8.7 8.7 0 0 0-.3 6.7c.8 2 2.4 3.4 4.9 4.4 1.2.5 2.3.8 3.3.9 1 0 2 0 3-.3s2-.8 3-1.4c.8-.6 1.4-1.2 1.6-1.8v-1.2c-.2-.4-.5-.7-.8-.8-.5-.2-1-.1-1.8.3l-.6.3h-.5c-.3-.2-.4-.5-.2-1.1l2.4-5.8c.3-.9.5-1.8.4-2.8-.1-1-.4-1.9-1-2.8-.5-.8-1.2-1.6-2-2.3-.7-.6-2-1.5-3.5-2.4 2 .2 3.7.3 4.8.2a9.2 9.2 0 0 0 8.2-6.2c1.3-3.2 1-6.1-.7-8.8a12.5 12.5 0 0 0-4.9-4.5 57 57 0 0 0-5.1-2.4l-.8-.3-1.2 3.1c1 .8 1.7 1.6 1.9 2.4Zm8.4 37.8c-.6.2-1 .4-1.6.4l-2-.2c-1-.2-1.6 0-2 .5-.2.4-.3.9 0 1.4 0 .5.5 1 1.1 1.3l6.4 4.3c1.2.8 2 .8 2.6 0 .4-.6.4-1.2 0-1.9l-.6-1a2.8 2.8 0 0 1 0-3.2l1.1-1.1 15.2-13.2 2.2-6-19.4 16.8c-1 .9-2 1.5-3 2Zm11.5-2.3-2.6 2.5 7 4.7-1.7 4.2-.4.8c-.2.3-.4.5-.7.6h-2.4l-.7.7c-.3.4-.3.8-.2 1.3.2.4.5.8 1 1.1l12.4 8.3c1.3.9 2.3.9 2.9 0 .2-.3.3-.6.2-.9 0-.3-.2-.7-.5-1.1-.4-.6-.6-1-.5-1.5l.5-1.6 12.6-34-10-6.8-2.3 2-9 23.5-5.6-3.8Zm34 7.7c.5 0 1-.2 1.5-.6l1.5-1c1.5-1.2 3-2 4.6-2.3 1-.3 2-.2 3 0l2.5-2.6-5.6-5.5-8.6 8.8a2 2 0 0 0-.6 1.4c0 .5.2.9.5 1.3.4.3.8.5 1.3.5ZM381 104.9a1 1 0 0 1-.6 0l-1.2-.7c-.9-.5-1.6-.4-2.2.2-.4.4-.5.8-.4 1.3.2.5.6 1.1 1.2 1.7l.7.7 9.6 9.3.7.7c.7.7 1.2 1 1.6 1.1.6.1 1.1 0 1.5-.3.6-.7.6-1.4.1-2.2l-.7-1.3v-.6c0-.4.2-1 .8-1.5L416.5 88l-9.5-9.3-24.6 25.3c-.6.6-1 .9-1.5 1Zm35-9.5c-.3 1.5-1 3.1-2 4.7l-1.1 1.5c-.4.5-.5 1-.5 1.4 0 .5.2.9.5 1.2.4.4.8.6 1.3.5.5 0 1-.2 1.3-.6l8.6-8.8-5.7-5.6-2.5 2.7c.3 1 .3 2 .1 3Zm-14.8 30.8a1 1 0 0 1-.5 0l-1-.7c-.7-.5-1.4-.5-2 0-.5.3-.7.7-.6 1.2 0 .4.2 1 .7 1.5l.4.6 8.1 10.7.5.6c.5.6.9 1 1.4 1.1.4.1.8 0 1.2-.2.7-.5.9-1.2.6-2l-.4-1.1v-.5c.2-.4.5-.8 1-1.2l24-18.3c.5-.4 1-.6 1.4-.6h.5l1 .7c.7.5 1.4.5 2 0 .4-.3.6-.7.6-1.2 0-.4-.2-1-.7-1.5l-.4-.7-8.2-10.6-.4-.6a3 3 0 0 0-1.4-1.1c-.4-.2-.9 0-1.2.2-.7.5-.9 1.2-.6 2l.4 1.1-.1.5c-.1.4-.4.8-1 1.2l-24 18.3c-.5.4-1 .6-1.3.6Zm51.8 17.3c0 .4-.2.8-.4 1.2a5 5 0 0 1-2 1.7l-23.6 12.8a6.9 6.9 0 0 1-3.7 1c-.4 0-.8-.1-1.1-.3l-1-.8-2.9 1.5c2.4 3.8 5.7 6.3 9.7 7.5 5.3 1.6 11 .7 17.1-2.6a22.1 22.1 0 0 0 11.7-13.3c.6-2 .8-4 .7-6-.2-2-.8-3.9-1.7-5.8l-2.9 1.5c.1.7.2 1.2.1 1.6Zm-16.2-13.3c-3 .5-6 1.5-9 3.2-6.2 3.3-10 7.6-11.6 12.9-1.2 4-.9 8 1 12.2l2.8-1.6c-.2-1-.2-1.8.2-2.4.4-.8 1.4-1.6 3-2.4l23.5-12.8c1.1-.6 2-.8 2.7-.8.8.1 1.6.5 2.4 1.2l2.8-1.5a16.5 16.5 0 0 0-9.3-7.3c-2.7-.9-5.5-1-8.5-.7Zm.5 78 12.7-4 21.9-23.3-3.9-12.6c-.4-1.5-.8-2.3-1-2.6l-.8-.5h-1l-.7.5-.3.9-.1 1.2c0 .4-.1.9-.3 1.2l-1.2 1.5-27.7 29.8 2.4 7.8Zm33-14.2c-.8.7-2 1.3-3.5 1.8l-8 2.4-4.2 4.7 13.1-4a8 8 0 0 1 3.4-.5c1.2.2 2.2.7 3 1.6.6.6 1 1 1.3 1 .2.2.5.2 1 0 .4 0 .7-.4.9-.8.2-.4.2-1-.1-2l-2.2-7.2c-.3-.8-.6-1.3-.9-1.5-.3-.3-.8-.4-1.3-.2l-.8.5c-.1.2-.3.6-.3 1a6 6 0 0 1-1.5 3.2Zm-39-16.9-1.2-1h-1c-1 .3-1.1 1.4-.6 3.1l2 6.6c.3 1 .6 1.6 1 1.8.4.3.8.4 1.2.2.6-.1 1-.5 1-1.1l.3-1c.3-1.2.8-2 1.5-2.8.7-.7 1.7-1.3 3-1.7l15.5-4.7 4.1-4.6-20.4 6.3c-2.7.8-4.9.4-6.4-1Zm8.6 43.8c-.7 2-1 4-.8 5.6l3.4-.4c.1-1.6.7-3 1.6-4.3 1-1.3 2-2.4 3.5-3.5 1.4-1 3-1.8 4.6-2.5.6-.2 1-.5 1.3-.8.3-.2.3-.6.3-1-.1-.5-.3-.9-.8-1.2-.4-.2-.9-.4-1.4-.3l-10.9 1.2c-1.7.2-2.5.8-2.4 2 0 .4.3.7.8 1 .6.4 1 .7 1 .9.2.2.3.5.4.9l-.1.8-.5 1.6Zm42.9 15.3c0-.4-.4-.8-.8-1l-1-.6c-.2-.2-.4-.5-.4-.8v-1a17 17 0 0 0 1-7l-3.1.3c-.3 2.2-1.2 4.1-2.6 5.7a14 14 0 0 1-5.5 3.7 5 5 0 0 0-1.1.4l-.5.5c-.3.4-.4.8-.3 1.2 0 .5.3.9.7 1.2.4.3.9.4 1.5.3l9.8-1 1.8-.6c.4-.3.5-.8.5-1.3ZM466.4 211c-4.5.5-7.8 2.7-10 6.8-.6.9-1 1.8-1.4 2.7l-1.8 5.3c-.7 2.4-1.3 4-1.9 4.8-.9 1.3-2 2-3.3 2.2a4 4 0 0 1-3.2-.8 8.1 8.1 0 0 1-2.1-3.6l-3.4.4a18 18 0 0 0 3 7.7 13.6 13.6 0 0 0 12.7 5.8c3.4-.3 6.2-1.8 8.5-4.4.8-1 1.5-2 2-3.1.5-1 1-2.5 1.6-4.4l2-6a8 8 0 0 1 1.9-2.8c.7-.6 1.5-1 2.5-1.1 1-.1 2 .1 2.7.7.8.5 1.4 1.4 2 2.6l3.3-.4c-.5-3.4-1.7-6.2-3.6-8.3a12 12 0 0 0-5.1-3.4c-2-.7-4.2-1-6.4-.7ZM29.8 313.6c0-.4.2-.8.5-1.3l1-1c.5-.4 1-.6 1.4-.7l1.2-.4 23.9-6.9c1.5-.4 2.8-.5 3.8-.2s1.7 1 2.2 2.1l3.5-1-.2-.7c-.6-2-1.7-3.8-3.5-5.7A18.8 18.8 0 0 0 50 292c-2.8 0-5.6.4-8.5 1.2-4 1.2-7.2 2.8-9.7 4.8a16.5 16.5 0 0 0-5.5 18l3.6-1c-.1-.5-.2-1-.1-1.4Zm11.1 13.8a2 2 0 0 0 1.2-.8c.2-.4.3-.9.2-1.3-.2-.5-.4-.8-.7-1l-1.5-.2a10.6 10.6 0 0 1-6.5-2.4 11 11 0 0 1-3-4.3l-3.6 1a12.5 12.5 0 0 0 6.3 7.4c1.4.7 2.8 1.2 4.2 1.5 1.4.3 2.6.4 3.4.1Zm22.3-14.6a17 17 0 0 1-3.7 4c-.7.7-1.8 1.4-3.2 2.3l-1.3 1c-.2.5-.2.9 0 1.3 0 .5.3.8.8 1 .4.3 1 .3 1.8.1l12-3.5c.6-.2 1-.4 1.2-.8.3-.4.3-.8.2-1.3-.2-.7-.6-1-1.1-1.1l-.8-.2c-.6-.1-1-.5-1.1-1a69.5 69.5 0 0 0 0-8l-3.6 1c.2.8.1 1.7 0 2.5l-1.2 2.7ZM85 355.9l.5.2.9.8c.6.6 1.2.7 2 .3.9-.5 1-1.4.3-2.7l-.4-.7-6.2-11.9-.4-.6c-.6-1.3-1.4-1.7-2.3-1.2-.8.4-1 1-1 1.7l.2 1c.1.6-.3 1.2-1.3 1.7l-11.6 6-2.3-4.2-2.6 1.3L63 352l-12.2 6.4c-1 .6-1.8.6-2.2.2l-.8-.7c-.6-.6-1.2-.7-2-.3-.9.5-1 1.4-.4 2.6l.4.8 6.2 11.8.4.7c.7 1.4 1.5 1.8 2.4 1.3.8-.4 1-1 1-1.8l-.2-1c0-.7.4-1.3 1.3-1.8l26.6-13.9c.6-.3 1.1-.4 1.5-.4Zm-39-1.4-.2-1c0-.5.4-1.1 1.4-1.6l26.6-14c1-.5 1.7-.6 2.2-.1l.7.6c.5.6 1.2.7 2 .3.9-.5 1-1.3.3-2.6l-.3-.7-6.2-11.9-.4-.7c-.3-.6-.7-1-1.1-1.2-.5-.3-.9-.3-1.3 0-.8.4-1 1-1 1.8l.3 1.2c0 .1 0 .3-.2.5-.2.3-.5.7-1.2 1l-26.6 14c-.6.3-1.1.4-1.5.3a1 1 0 0 1-.5-.1l-.9-.8c-.6-.6-1.3-.7-2-.3-.4.2-.7.5-.7 1s0 1 .4 1.7l.3.7 6.3 11.8.3.7c.7 1.3 1.5 1.7 2.4 1.2.7-.4 1-1 1-1.8ZM91.8 371l-23.4 10.4c-1.3.6-2.5 1-3.5 1l-1.6-.1c-.5-.1-1-.4-1.9-.8-.8-.4-1.5-.5-2-.1-.4.3-.6.8-.5 1.3 0 .5.3 1 .7 1.7l4.9 5.9c.9 1 1.7 1.3 2.5.7.6-.4.7-1 .6-1.7l-.3-1.1c-.4-1.3 0-2.3 1-3.1.3-.3.7-.6 1.3-.8L88 376l3.8-5.1Zm-7.1 35 22-28.9-7.7-9.4-2.7 1.3-15.4 19.8-4.3-5.2-3.3 1.6 5.3 6.5L76 395a4 4 0 0 1-.7.6c-.2.3-.5.4-.8.4-.3 0-.6 0-1-.2-.6-.3-1-.4-1.3-.4-.3 0-.6.2-.9.4-.3.3-.5.7-.5 1.2 0 .4.2.9.6 1.4l9.5 11.6c1 1.2 1.8 1.4 2.7.8l.5-.8c0-.3 0-.7-.2-1.3-.2-.6-.2-1.1 0-1.5l.9-1.5Zm43 14a9.5 9.5 0 0 0 6.5-3.8 9.2 9.2 0 0 0 2-8.6c-.5-2.2-1.6-4-3.3-5.7a56.7 56.7 0 0 0-4.2-3.8l-.6-.5-2.1 2.6c.7 1 1 2 1 2.8 0 .8-.4 1.7-1.2 2.6l-5 6.2a7 7 0 0 1-1.5 1.4c-.4.3-.9.4-1.4.4-.6 0-1.4-.2-2.3-.8l-2 2.5c.7.8 1 1.6 1 2.5a4 4 0 0 1-.6 2.1l-1.2 1.6-3.2 3.9a8.6 8.6 0 0 0-2.4 6.3c.2 2 1.3 4 3.4 5.6 1 .9 2 1.5 2.9 1.9.9.4 1.9.6 3 .6 1 0 2.1-.2 3.2-.5 1-.3 1.7-.7 2-1.2.3-.2.4-.6.4-1.1 0-.5-.2-.9-.5-1-.4-.4-1-.5-1.8-.3l-.7.1-.4-.1c-.3-.3-.3-.7.1-1.2l4-4.8c.6-.7 1-1.5 1.2-2.5.2-1 .2-2 0-3-.3-.9-.7-1.8-1.3-2.7-.5-1-1.4-2-2.6-3.4a32 32 0 0 0 4.5 1.6c1 .2 2.1.3 3.2.2Zm-24.5 5.4-.1-.5c0-.5.2-1 .7-1.6l22.5-27.2-10.4-8.5-.6-.5a3 3 0 0 0-1.5-.8c-.5 0-.9.1-1.2.5-.5.7-.5 1.3 0 2l.5 1.1v.5c0 .4-.2.9-.6 1.4l-19.1 23.2-1.3 1a1 1 0 0 1-.5 0l-1.1-.4c-.8-.3-1.5-.2-2 .4-.3.4-.4.9-.3 1.3s.5 1 1 1.4l.6.5 10.4 8.5.8.7c.6.5 1.2.8 1.7.9.6 0 1 0 1.4-.5.5-.7.5-1.4-.1-2.2l-.8-1.2Zm38 26.1a1 1 0 0 1 0-.4c-.1-.4 0-1 .4-1.5l15.1-26c.4-.6.8-1 1.1-1.1l.5-.2 1.2.3c.8.1 1.4-.1 1.9-.8.2-.5.2-.9 0-1.3a3 3 0 0 0-1.2-1.2l-.7-.4L148 412l-.7-.4a3 3 0 0 0-1.7-.4c-.4 0-.8.2-1 .7-.5.7-.4 1.3.2 2l.8.9v.5c.1.4 0 .9-.4 1.5l-15.1 26c-.4.5-.7 1-1.1 1a1 1 0 0 1-.5.2l-1.2-.2c-.8-.2-1.4 0-1.8.8-.3.4-.3.8-.1 1.3.2.4.6.8 1.2 1.2l.7.3 11.6 6.8.6.4a3 3 0 0 0 1.7.5c.5 0 .8-.3 1-.7.5-.7.4-1.4-.1-2a20 20 0 0 1-.8-1Zm17.3-17.1c.2.4.5.8 1 1 .4.2.9.2 1.3 0s.8-.6 1.1-1l1-1.7c1-1.6 2-2.8 3.4-3.8a6 6 0 0 1 2.8-1.1l1.4-3.4-7.4-3-4.5 11.5a2 2 0 0 0-.1 1.5Zm26.6-4.1-12.4-5-13.1 32.8c-.3.7-.6 1.2-1 1.4a1 1 0 0 1-.6.2l-1.4-.2c-1-.1-1.6.2-2 1-.1.5 0 1 .2 1.4.3.4 1 .8 1.7 1.1l1 .4 12.4 5 1 .3c.7.4 1.4.5 1.8.4.6-.1 1-.4 1.2-.9.3-.8.1-1.5-.7-2-.7-.5-1-.8-1.1-1-.2 0-.3-.2-.3-.4-.2-.4-.1-1 .2-1.8l13.1-32.7Zm27 45.9-1.3-.6-.4-.5c-.2-.4-.3-1-.1-1.7l2.6-12.9-3.6-17.2v-1.5c0-.4.3-.7.7-.9l1-.3c.6-.3 1-.7 1.1-1.3.1-.5 0-1-.5-1.4-.2-.3-.7-.5-1.5-.6l-14.4-3h-1v-.2l-7.3-2.9-1.3 3.4c.6.8 1 1.7 1.2 2.7.3 1.6.3 3.3-.2 5.2l-.4 1.8.1 1.5c.2.4.5.7 1 1 .5.1 1 0 1.4-.1a2 2 0 0 0 1-1.1l3.5-8.7.3.4c.5.4.9 1 1 1.9l4.3 21.5-2 10c-.2.7-.5 1.3-.9 1.5a1 1 0 0 1-.4.3l-1.5.1c-1 0-1.5.5-1.7 1.3-.1.5 0 1 .5 1.4.3.3.9.6 1.8.8l1 .2 13 2.7 1 .2c1 .1 1.6.2 2 0 .5-.1.9-.5 1-1 .2-1-.2-1.6-1-2Zm14.9-35.5-7.3-1.4-1.6-.3a2 2 0 0 0-.8.2c-.4.2-.7.6-.8 1.1l.1 1c.2.3.6.6 1.2 1 1.2.8 1.6 1.7 1.4 2.9-.2 1-.5 1.8-.9 2.3l-4.5 6.3.8 4.2 7.2-9.8 1-1.4c.5-.7 1.2-1.3 1.9-1.8.5-.3 1.2-.6 2.3-.9.6-.1 1-.2 1.2-.4.2-.2.4-.5.5-.9.2-1-.4-1.8-1.7-2Zm32.9.5-13.2.7c-1.5.1-2.4.2-2.7.4-.3.1-.5.4-.7.7l-.2 1 .3.8.8.5 1.1.3c.5.1.9.3 1.1.6l1.2 1.6 22.4 33.9 8.2-.5-.8-13.2L260 441Zm18-1-7.5.4c-.7 0-1.3.2-1.6.5-.4.2-.5.6-.5 1.2 0 .3.1.6.3.8.2.3.5.5.9.6a6 6 0 0 1 2.7 2.2c.6.9.9 2.1 1 3.8l.5 8.3 3.4 5.2-.7-13.7a8 8 0 0 1 .3-3.3c.5-1.2 1.3-2 2.3-2.7l1.3-.9c.2-.2.3-.5.2-1 0-.4-.2-.8-.5-1-.4-.4-1-.5-2-.4Zm-21.4 39.4-1-.5c-1-.5-1.8-1.2-2.3-2-.5-1-.8-2.1-.9-3.5l-1-16-3.4-5.2 1.2 21.4c.2 2.8-.7 4.8-2.5 6-.6.3-1 .6-1.2.9-.2.2-.3.5-.3.8.1 1 1 1.5 2.9 1.4l6.9-.4c1 0 1.6-.2 2-.5.3-.3.5-.7.5-1.1 0-.6-.4-1-.9-1.3Zm62-19.8c-.3-.2-.8-.3-1.3-.2-.4.1-.7.3-.9.6-.2.3-.3.8-.3 1.5-.2 1.3-.4 2.5-.7 3.4-.3.8-.8 1.8-1.4 2.7a10 10 0 0 1-5 3.8l.7 3.1 12.2-3-2.6-10.3c-.2-.8-.4-1.3-.7-1.6Zm-34.4-21-.7.2a3 3 0 0 0-1.5.8c-.3.4-.4.8-.3 1.3.2.8.7 1.2 1.5 1.3h1.3l.4.3c.3.3.5.7.7 1.4l7.2 29.2c.2.7.2 1.2 0 1.6l-.2.4-1 .7c-.7.4-1 1-.8 1.8.1.5.4.8.9 1 .4.2 1 .2 1.7 0l.7-.2 13-3.2-9.9-39.8-13 3.2Zm26.6 22.2c.3.2.7.3 1.2.2.5-.2.8-.4 1-.8 0-.4 0-1.1-.2-2l-2.8-11.1c-.2-1-.4-1.5-.6-1.7-.4-.4-.9-.6-1.5-.4-.4.1-.8.3-1 .7l-.2 1.7c0 1.1-.2 2-.5 2.8-.4.8-1.1 1.6-2.1 2.4l.8 3.4c1 0 2 .3 2.8.9.8.5 1.5 1.4 2.1 2.7.4.6.7 1 1 1.2Zm-4-21.9c1.7.9 3.2 2.3 4.5 4.4l.8 1h1c.5-.2.8-.4 1-.7.2-.4.2-.8 0-1.4l-2.5-10.4-11.8 3 .9 3.4c2.3-.4 4.3-.1 6 .7ZM321 432l-1.5-3.4-7.2 3.3 5 11.2c.2.5.6.9 1 1 .5.3 1 .2 1.4 0 .5-.2.8-.5 1-1v-1.4l-.5-1.8c-.5-1.9-.6-3.6-.4-5.2.2-1 .5-1.9 1.2-2.7Zm30.4 23.7-1.5.2-.5-.1c-.4-.2-.8-.7-1.1-1.4L334 422.1l-12.2 5.4 14.4 32.3c.3.7.4 1.3.3 1.7l-.2.5-1.2 1c-.7.5-1 1.2-.6 2 .2.5.6.8 1.1.8a4 4 0 0 0 2-.4l1-.4 12.1-5.5 1-.4c.8-.3 1.3-.7 1.6-1 .3-.6.4-1 .2-1.6-.4-.8-1-1-2-.9Zm17-55.1-5 3.6 5.7 13.9 21.2 17.2 5.3-3.9-5.3-13-22-17.8Zm14.7-7.2.3-1c0-.3 0-.5-.2-.8-.4-.4-.7-.6-1.1-.6-.4 0-1 .2-1.6.7l-5.8 4.2c-.6.4-1 .8-1 1.2-.2.4-.1.8.2 1.2.2.3.5.5.8.6h3.3c.5.2 1 .5 1.3 1l.7 1.4 3.5 8.5 4.9 4L383 400a8.6 8.6 0 0 1-.7-4.4c.1-.6.4-1.4.9-2.2ZM360 413.7l-.5-.5c-.2-.4-.4-.7-.4-1l.4-1.3c.4-.8.3-1.4 0-2-.3-.3-.8-.5-1.3-.5-.4 0-1 .2-1.6.7l-11.4 8.3-1.3 1.4-.4-1-7.2 3.3 1.4 3.3c1.1.1 2 .5 2.9 1 1.3.9 2.5 2.1 3.6 3.7l1 1.6c.3.5.7.8 1.1 1 .5.1 1 0 1.4-.1.4-.2.8-.6 1-1 0-.5 0-1-.2-1.5l-3.5-8h.9a2 2 0 0 1 1.2 0c.3.1.8.4 1.4 1l28.6 22.8 5.3-3.9-5.7-13.8-16.7-13.5Zm60.7-36.8a22.1 22.1 0 0 0-16.5-6.5 16.7 16.7 0 0 0-10.8 5l2.4 2.2 1.5-.6h1.3a5 5 0 0 1 2.2 1.3L421 396c1.3 1.1 2 2.1 2.3 3v1.2c0 .4-.1.8-.4 1.3l2.5 2.1c2.7-3.5 4-7.4 3.7-11.7-.3-5.5-3.1-10.5-8.3-15.1Zm-1.9 27.2c-.8-.1-2-.8-3.2-2l-20.1-17.8a4.9 4.9 0 0 1-1.6-2.3c-.2-.7-.1-1.5.3-2.5l-2.4-2.2a16.6 16.6 0 0 0-3 5.3 18.9 18.9 0 0 0 1.6 14.2c1.4 2.6 3.4 5.1 6 7.4a21.9 21.9 0 0 0 16 6.4c4.3-.3 8-2 11.3-5l-2.5-2.2c-.9.6-1.7.8-2.4.7Zm39-56c-.5-1-1-1.6-1.5-1.9-.3-.2-.7-.2-1.2-.1s-.8.3-1 .6c-.2.5-.2 1 .1 1.9l.3.6-.1.4c-.2.4-.6.4-1.2 0l-5.3-3c-.9-.5-1.8-.8-2.7-.8-1 0-2 .1-3 .5l-2.5 1.6c-.8.7-1.8 1.8-3 3.2.6-2 .9-3.6 1-4.7 0-1 0-2.1-.4-3.2a9.5 9.5 0 0 0-4.6-5.7c-3-1.8-6-2-8.9-.7-2 1-3.7 2.4-5 4.3a57 57 0 0 0-3.2 4.7l-.3.7 2.8 1.7c1-1 1.9-1.4 2.6-1.6.8 0 1.8.2 2.9.8l6.8 4a7 7 0 0 1 1.7 1.3c.3.3.5.8.6 1.3.1.6 0 1.4-.4 2.4l2.8 1.6c.6-.8 1.4-1.3 2.3-1.5a4 4 0 0 1 2.2.3l1.7 1 4.4 2.5a8.6 8.6 0 0 0 6.5 1.3c2-.5 3.8-2 5.1-4.2.7-1.1 1.1-2.2 1.3-3.1.3-1 .3-2 .2-3-.2-1.2-.5-2.2-1-3.2Zm-7.9 17.1c-.7-.4-1.4-.3-2.1.4l-1 1-.6.2c-.4.1-1 0-1.7-.4l-30.4-17.8-6.8 11.5-.4.7a3 3 0 0 0-.5 1.6c0 .5.3.9.7 1.1.7.4 1.4.4 2-.2l1-.8.4-.1c.4 0 1 0 1.6.4l26 15.2c.5.4 1 .7 1 1l.2.6-.2 1.2c-.2.8 0 1.4.7 1.8.5.3 1 .3 1.3 0a3 3 0 0 0 1.2-1.1l.4-.7 6.8-11.6.5-.9c.4-.7.7-1.3.6-1.8 0-.6-.2-1-.7-1.3Zm19.6-43.7c-.8-.2-1.5 0-2 .6l-.5.8c-.4.5-1 .6-2.1.2l-28.6-9.3c-.7-.2-1.2-.5-1.4-.8a1 1 0 0 1-.2-.4v-1.2c0-.9-.4-1.4-1.2-1.7-.5-.1-1 0-1.3.2-.4.3-.7.8-.9 1.5l-.2.7-4.2 12.8-.2.7a3 3 0 0 0-.1 1.7c0 .5.4.8.9 1 .8.2 1.4 0 1.9-.7l.7-1 .5-.2c.3-.1.9 0 1.5.1l28.6 9.3c.7.2 1.1.5 1.4.8l.2.5v1.2c0 .8.4 1.4 1.2 1.6.5.2.9.1 1.3-.2.4-.2.7-.7.9-1.4l.2-.8 4.2-12.7.2-.7c.4-1.4.2-2.2-.8-2.6Zm6.5-20h-1.2l-.7.7-1 .7c-.5.2-1 .3-1.7.3l-25.3 1.3-2.1-2.9a20 20 0 0 1-2.2-3.6 9.4 9.4 0 0 1-.8-3v-1.7c-.1-1-.6-1.6-1.4-1.8-.5-.2-1-.2-1.4.1-.4.3-.7.8-1 1.4l-3.2 10.2c-.2.6-.3 1-.1 1.4.1.5.5.9 1 1 .6.2 1.2 0 1.7-.5l.7-.9c.4-.4.8-.7 1.4-.8.5-.2 1-.1 1.6 0a5 5 0 0 1 2.5 2l7.4 9.9a4 4 0 0 0 1.9 1.5c.7.2 1.6.3 2.7.3H468c.3 0 .4.2.5.4l.3 1c0 1 .4 1.4 1 1.6.6.2 1 .1 1.5-.1.4-.3.7-.8.9-1.5l4.7-14.4c.4-1.4.2-2.3-.8-2.6Z"/>
  <path fill="#1d4384" d="m45.3 266.9 5.1 8.2-9.7-1-6.2 7.5-2.1-9.5-9-3.7 8.4-4.9.7-9.7 7.2 6.5 9.5-2.3-4 8.9Zm422-3.8-1.4-9.6-6.8 7-9.6-1.7 4.6 8.6-4.6 8.6 9.6-1.6 6.8 7 1.4-9.7 8.7-4.3-8.7-4.3Z"/>
  <path fill="url(#a)" d="M267.7 169.3a1417.4 1417.4 0 0 0 12.8 25c9 .7 19.7-.3 25.9-2.6 6.8-2.6 19.4-8.9 30.3-16C347 169 371.2 149 388.5 148a173 173 0 0 0-23-25.4c-6.3 3-19 9.3-29.3 16.5-13 9-41.8 31.7-68.5 30.2Z"/>
  <path fill="url(#c)" d="M322.3 221.5c-10 2.6-19.3 3-25.2 2.7 9.2 15.6 15.2 24 18.5 28.2 10.5 2 37.3-2.4 49.6-9 17.5-9.4 41.6-32 52-34a170.7 170.7 0 0 0-11.5-32.5c-4.7.6-14 3-26.9 11.5-11.8 7.8-42.8 29.5-56.5 33Z"/>
  <path fill="url(#d)" d="M237.7 106.9A2452 2452 0 0 0 253 139c15.3.4 26-4.4 36-9 17.2-7.7 35.4-26 46.2-29.5A171 171 0 0 0 298.2 85a136.6 136.6 0 0 1-35 18.4 63.8 63.8 0 0 1-25.5 3.6Z"/>
  <path fill="url(#e)" d="M165.4 315.7c18-6.6 26.6-5 34.6 0 6.4 4 14.7 10.1 23.2 14.3 3.4.5 13.2 1.8 20.8.8 6.6-.9 26-3.3 48-21.7 10.4-8.7 16.4-18.6 23.7-25.3 7.3-6.6 16-10 28-10.6-6.5-3.2-16.6-9-24.9-17.1-1-.7-4.6-3-8.4-2.8-7.8.2-24.4 4.6-54.5 32-28.3 25.8-48.3 21.2-55.6 20-14.2-2.3-26.5-13.9-42.4-14.6-13.4-.7-26.2 3-37.2 10.6-9.4 6.7-16.3 17-25.5 23.7a172.2 172.2 0 0 0 23.7 36.4c9-7.6 29.8-39.6 46.5-45.7Z"/>
  <path fill="url(#f)" d="m261.5 349.5-1.6-.8c-7.4-3.9-19.3-11-30.4-15.9-4 .1-30 1.3-55.2 17.7-17 11-29 23.8-34.3 31.7a172.2 172.2 0 0 0 34.6 22.4c9.2-11.6 45.7-57.6 86.9-55Z"/>
  <path fill="url(#g)" d="M422 245.5c-6 4.7-20.8 16.2-27 19.1-6.7 3.3-18 11.4-43.4 11.6 6.7 3 16.7 7.9 26.2 15.2 0 0-23.5 4.6-40.9 19.7-15.2 13.3-28.3 41.8-56.8 43.5h-1l25.5 10s-1.4 1.7-19.2 5.1a141 141 0 0 0-44.4 18.7c-14 8.4-27.3 18-34.1 28.2a172.3 172.3 0 0 0 52 5.2c12-12.6 40.4-40.5 70.7-45.9l-12.6-7a90.2 90.2 0 0 0 38.1-16.1c8.7-6.1 25.3-28.8 34.9-37.1 5.6-5 14-6.4 19.3-6.8l-14.3-9.7s14.6-4.2 21.8-7.3a172.3 172.3 0 0 0 5.1-46.4Z"/>
  <path fill="url(#h)" d="M225.4 79.8c2 4.6 6.4 14.4 12.3 27.1 10 .5 16.8-.8 25.5-3.6 8.5-2.8 27.6-11.9 35-18.4a172 172 0 0 0-72.8-5.1Z"/>
  <path fill="url(#i)" d="M252.9 139c4.6 9.7 9.6 20 14.8 30.3 26.7 1.5 55.5-21.2 68.5-30.2a226 226 0 0 1 29.4-16.5 172.6 172.6 0 0 0-30.5-22c-10.8 3.4-29 21.7-46.2 29.4-10 4.6-20.7 9.4-36 9Z"/>
  <path fill="url(#j)" d="M306.4 191.7c-6.2 2.3-17 3.3-25.9 2.5 6.4 12.2 12 22 16.6 30 6 .3 15.1-.1 25.2-2.7 13.7-3.6 44.7-25.3 56.5-33.1a64.8 64.8 0 0 1 27-11.5 172 172 0 0 0-17.3-29c-17.3 1-41.5 21.1-51.8 27.9-10.9 7-23.5 13.3-30.3 15.9Z"/>
  <path fill="url(#k)" d="M315.6 252.4c2.4 3 3.5 3.9 3.5 3.9l-.3-.2c8.3 8 18.4 13.9 25 17.1 0 0 3 1 7.8 3 25.3-.2 36.7-8.3 43.4-11.6 6.2-3 21-14.4 27-19-.4-12.5-2-24.6-4.8-36.2-10.4 2-34.5 24.6-52 34-12.3 6.6-39.1 11-49.6 9Z"/>
  <path fill="url(#l)" d="M174.3 350.5a112.7 112.7 0 0 1 55.2-17.7 102.1 102.1 0 0 0-6.3-2.8c-8.5-4.2-16.8-10.4-23.2-14.3-8-5-16.6-6.6-34.6 0-16.7 6-37.6 38.1-46.5 45.7 6.5 7.5 13.5 14.5 21 20.8 5.3-7.9 17.3-20.6 34.4-31.7Z"/>
  <path fill="url(#m)" d="M351.6 276.3c-4.8-2.1-7.9-3-7.9-3-12 .6-20.7 4-28 10.5-7.3 6.7-13.3 16.6-23.7 25.3-22 18.4-41.4 20.8-48 21.7-7.6 1-17.4-.3-20.8-.8 2.3 1.1 4.6 2 6.9 2.8h-.6c11.1 5 23 12 30.4 16l1.6.7c2.4.2 4.8.5 7.2 1l10.4 4h1c28.5-1.6 41.6-30.1 56.8-43.4 17.4-15.1 41-19.7 41-19.7a123.6 123.6 0 0 0-26.3-15.1Z"/>
  <path fill="url(#n)" d="M279 354.6c-5.9-2.4-10.3-4-10.3-4-2.4-.6-4.8-.9-7.2-1-41.2-2.6-77.7 43.4-86.9 55 10.2 5 21 9 32.3 12 6.8-10.2 20.2-19.8 34-28.2a141 141 0 0 1 44.5-18.7c17.8-3.4 19.2-5 19.2-5L279 354.6Z"/>
  <path fill="url(#o)" d="M335.4 376c3.2.2 13.5 1 26.7 4.5a172.3 172.3 0 0 0 49-70.3l-1.8-1.3c-5.2.4-13.7 1.8-19.3 6.8-9.6 8.3-26.2 31-34.9 37A90.2 90.2 0 0 1 317 369l12.6 7h.3c.5-.1 5 0 5.5.1Z"/>
  <path fill="#56120f" d="m395 299.2 14.3 9.7 1.9 1.3.5-1.4c2-5.5 3.7-11.1 5.1-16.9-7.2 3.1-21.8 7.3-21.8 7.3Z"/>
  <path fill="url(#p)" d="M335.4 376c-.5 0-5-.2-5.5-.1h-.3c-30.3 5.4-58.7 33.3-70.7 45.9A171.1 171.1 0 0 0 362 380.5a135.1 135.1 0 0 0-26.7-4.5Z"/>
  <path fill="url(#q)" d="M110.2 238.8c-10.9-12.3-19.5-24-26.2-34A172.2 172.2 0 0 0 95.2 325c9.2-6.8 16-17 25.5-23.7a58.9 58.9 0 0 1 37.2-10.6c3 .1 6 .7 9 1.5a451.2 451.2 0 0 1-56.7-53.4Z"/>
  <path fill="url(#r)" d="M311.3 253.3a17 17 0 0 1 7.8 3l-3.5-4c-3.3-4.2-9.3-12.5-18.5-28-4.6-8-10.2-18-16.6-30l-.7-1.4a1417.4 1417.4 0 0 1-27-53.9 2452 2452 0 0 1-27.4-59.2 169.2 169.2 0 0 0-75.6 30.4c17.2 21.1 56.7 64.3 161.5 143.1Z"/>
  <path fill="url(#s)" d="M149.8 110.2A172.2 172.2 0 0 0 84 204.8c6.7 10 15.3 21.7 26.2 34 18.7 21.2 39 39.3 56.7 53.4 11.8 3.4 22 11.3 33.4 13.1 7.3 1.2 27.3 5.8 55.6-20 30.1-27.4 46.7-31.8 54.5-32h.9c-104.8-78.8-144.3-122-161.5-143Z"/>
  <path fill="#fff" d="m196.3 95.8-7.9-5.5 9.2-1 .7-3.4 4.4-1.3 1.4 4 9.7.7-5.8 5.5 7 10.4-11.8-7.5-6.2 9.7-.7-11.6Zm24.6 46.7.6 12.3 6.2-10.1 12.7 7-8-11.2 5.4-6-10-.4-4.7-8.4-1.5 9.8-9.8 1.4 9 5.6Zm19 46.5 1 12.4 6.1-10.2 12.6 7.2-7.5-11 5.3-6.7-10 .1-5.2-9.2-1.1 10.3-10.1 1 8.8 6.1Zm-14.1 6.7 3.8-8-8.3 3.2-7.7-8 .5 10.3-9.9 2.8 9.6 4.2 1.8 12 5.3-10.4 11.5 2-6.6-8.1Zm27.5 50.2 4.2-8.8-9.2 3.5-8.5-8.8.6 11.3-10.9 3 10.6 4.8 2 13 5.8-11.4 12.7 2.3-7.3-9Zm-39.6-19.1-15 4 2.6 12.6 18 2.4-9.8-9.6 4.2-9.4ZM184 269.2l-1.2 8.2-10.4 4 11.1 5.3.3 10.4 7.2-8 11.3 1.3-4-10.6-14.3-10.6Zm-40.9-9.5-6.5 5.8 6.1 2.2 1.3 7.4 8.8-8-4.3-7.6-5.4.2Zm-7.4 1-7.5 4-5.2-6.7-.5 10.4-5.1 2.3L124 281l4.3-3.8 10.6.7-5.7-7.2 2.6-10Zm-34.3-10.2-9.8 5.6-6.6-9.6.4 11.7-7 4.1.1 2.5 7.3 2.6.2 11.4 7.6-9.6 13.3 1-8.6-8.2 3.1-11.5Zm-17.1-37.6.8-6.2 3.6 5.1 13.8 3-8.1-9.1 6-10.1-10.7 1.5-1.9-4.7c-1.5 4.2-2.8 8.5-4 13l.7.6-1 .6a171 171 0 0 0-3 14l12.1-.2-8.3-7.5Zm35.5 9.4 8 2.7 15 2-22.5-25v13l-8.9 4.4 8.4 3Zm52 4 3.1-12.4-9.8 5.3-7.6-5.4 1.1 9.7-8 8 10 .4.8 13.6 6.5-11.2h14.2l-10.3-8ZM113.2 162l1.7-12.9-8.2 5.7a172 172 0 0 0-8.4 14l2.7-.1 1.3 12.5 6-11.6L122 171l-9-8.9Zm23.2 13.7 2.5 13.6 5.5-12 11 .2-6.8-7.5 3-13.3-9.5 6-8.7-7.3.6 12.4-8.2 8 10.6-.1Zm42.4-2-7.6-7.3v11.8l-9.3 6 11.1 2.6 2.4 13.9 5.8-12 13 1.2-8.7-8.7 4.6-10.2-11.3 2.6Zm-26.1-25.2 6.3-10.5 10.9 3-7.9-9 4-3.6-2-2-5.1-.1-5.8-7.5-.7 9.2-9.3 4.2 8.8 3 .8 13.3Zm53.1 9.5-6.5-8.2-.6 9-2.5-.1 13.8 12.5 6 2.4-6.6-9.2 7.8-7.2-11.3.8Zm-27.7-28.7 6.3-9.6 12.2 6.7-7.5-11.5 5-6-9.5-.3-5.4-8.6-1.3 10.2-10.2 1 9.5 5.6.9 12.5Z"/>
  <path fill="url(#t)" filter="url(#shadow)" d="M129 276.5c2.2 2 4.7 3.3 7.5 3.8v6.4c-3 0-6.3-.9-10-2.6l-2.8-1.2-1.5-.3a3 3 0 0 0-1.6.3c-.4.3-1 .9-1.8 1.9-.6.8-1.3 1.2-2.1 1.2-2 0-3-1.6-3-4.8v-20.3c0-1 .2-2 .8-2.6.6-.8 1.3-1.2 2.2-1.2.8 0 1.4.2 1.9.7.4.5.8 1.4 1.2 2.7a37 37 0 0 0 3.6 9c1.6 2.7 3.5 5 5.6 7Zm27.8-37a57 57 0 0 0-7.7-3.9c-5.4-2.4-8.9-4-10.4-4.9a14.7 14.7 0 0 1-4.8-4c-1-1.4-1.5-3-1.5-4.9a7 7 0 0 1 1.8-4.8c1.1-1.4 2.9-2.3 5.2-3v-6.4c-6.4.4-11.7 2-16 5.1-3 2.2-5.5 5-7.2 8.7a26.7 26.7 0 0 0-2.6 11.7c0 8.3 3.5 15 10.4 19.9 1.5 1.1 3.1 2.1 4.8 3 1.6.9 4.7 2.3 9.2 4.3 4.1 1.8 7 3.3 8.4 4.6 2.2 1.9 3.3 4 3.3 6.5 0 2.4-.7 4.3-2.1 5.7a14.8 14.8 0 0 1-7 3.2v6.4a32.5 32.5 0 0 0 14.6-3.8 25.1 25.1 0 0 0 13.3-22.6c0-6.3-2.2-11.8-6.5-16.4a26.8 26.8 0 0 0-5.2-4.4Zm-3.1-19.5a26 26 0 0 1 5.5 10.8l.6 2.2.8 1c.6.5 1.3.8 2 .8a3 3 0 0 0 2.4-1c.6-.8.9-1.6.9-2.7v-18.4c0-1.6-.3-2.7-.7-3.4-.5-.8-1.2-1.1-2.2-1.1-.8 0-1.5.4-2.1 1.2l-1.2 1.6c-.4.5-.9.7-1.6.7a5 5 0 0 1-1.8-.4 30.7 30.7 0 0 0-12.6-3.4v6.1c4 1 7.3 3 10 6Zm70.3-10a30.2 30.2 0 0 0-10.9-2.4v6l2.6 1.3c.6.4 1.2 1 1.6 1.9.7 1.1 1 2.7 1 4.6v49.9c0 3-.5 5.4-1.5 6.9-.4.6-1 1.2-1.4 1.5a7 7 0 0 1-2.3.9v6.1c8.2-.6 15-3.7 20.6-9.3a41 41 0 0 0 10.7-30.2c0-13.1-3.8-23.4-11.2-30.8a30.7 30.7 0 0 0-9.2-6.3Zm-35.3 6.4a35 35 0 0 0-8.4 13.3c-2 5.2-2.9 11-2.9 17.5a41 41 0 0 0 10.8 30.2 31.5 31.5 0 0 0 20.4 9.3v-6.1c-1.8-.5-3-1.3-3.8-2.4-.9-1.4-1.3-3.7-1.3-7v-49.8c0-2.2.4-3.9 1.2-5 .7-1.2 2-2 4-2.8v-6a30 30 0 0 0-20 8.8Zm119.6 46.7c-.9 0-1.5.2-2 .7-.5.5-1 1.4-1.3 2.6a19.8 19.8 0 0 1-7.5 10.2c-3.1 2-6.1 3-9 3.3v6.8a22.7 22.7 0 0 0 16-7.5c2-2 3.7-4.2 5-6.5 1.2-2.4 1.8-4.4 1.8-6.1 0-1-.3-1.9-.8-2.5-.6-.7-1.4-1-2.2-1Zm-37.4-52.2a34.5 34.5 0 0 0-17.1 21.3c-1.6 4.8-2.3 10-2.3 15.7 0 7.6 1.2 14.2 3.5 19.8 2.3 5.6 5.8 10 10.5 13.4a31 31 0 0 0 18.5 5.6v-6.8c-1.1-.1-2-.3-2.7-.6-.7-.4-1.3-.9-1.9-1.6-.5-.7-1-1.5-1.3-2.5-.4-.9-.5-1.8-.5-2.7v-48.4c0-3 .5-5.2 1.5-6.8 1.1-1.6 2.7-2.6 4.9-3v-6.7h-1.3a25 25 0 0 0-11.8 3.3Zm26 8.5c2 2.2 3.8 5 5.4 8.6.7 1.6 1.5 4 2.3 6.9.3 1.3.7 2.2 1.3 2.8.5.6 1.2.9 2 .9a3 3 0 0 0 2.3-1c.7-.7 1-1.8 1-3.3v-23.2c0-1.1-.2-2-.8-2.6-.5-.6-1.3-.9-2.3-.9-1.2 0-2 .5-2.4 1.4l-.7 1.3c-.6 1-1.4 1.4-2.5 1.4-.6 0-1.8-.3-3.7-1l-6-2c-1-.4-2.7-.7-4.5-1v6.7c1.7.2 3.2.8 4.5 1.6 1.4.8 2.8 1.9 4.1 3.4Zm93.2-9.4c-.6-.6-1.8-.9-3.7-.9h-13.7c-1.5 0-2.5.3-3.1.7-.7.5-1 1.2-1 2.2 0 .7.1 1.2.4 1.7.3.4.9.8 1.6 1.2a11 11 0 0 1 4.8 4.2c.9 1.7 1.3 4 1.3 7.2v15.4l5.9 10v-25.4c0-2.6.3-4.7 1-6.2 1-2 2.5-3.6 4.4-4.6a9.7 9.7 0 0 0 2.5-1.6c.4-.4.5-1 .5-1.8s-.3-1.5-.9-2Zm-47 69.8-1.6-.9c-1.9-1-3.3-2.5-4.1-4.1a14 14 0 0 1-1.3-6.4v-29.9l-5.8-9.8v39.7c0 5.2-1.8 8.8-5.3 10.7-1.2.7-2 1.2-2.3 1.6-.4.4-.5 1-.5 1.6 0 2 1.6 2.9 5 2.9h12.7c1.8 0 3-.2 3.6-.7.7-.6 1-1.3 1-2.1 0-1.2-.4-2-1.4-2.6Zm-13.9-70.7c-2.7 0-4.4.2-5 .4-.6.2-1 .6-1.4 1.2-.3.5-.5 1-.5 1.7 0 .6.2 1.2.5 1.6.4.5.8.9 1.4 1l2 .8c.9.3 1.5.7 2 1.2.5.6 1.2 1.6 2 3l37.4 65.2h15v-24.6l-29.3-51.5h-24Z"/>
  <path fill="#231f20" d="M157.2 238.9a58 58 0 0 0-7.7-4c-5.4-2.4-9-4-10.4-4.9a14 14 0 0 1-4.6-3.7 7.4 7.4 0 0 1-1.4-4.5c0-1.7.6-3.1 1.6-4.3a10 10 0 0 1 4.9-2.7l.5-.2v-7.8h-.8c-6.4.4-12 2.1-16.3 5.3a23.1 23.1 0 0 0-7.5 9 27.6 27.6 0 0 0-2.7 12c0 8.5 3.6 15.4 10.7 20.5 1.6 1.2 3.2 2.2 5 3 1.6 1 4.6 2.4 9.2 4.4 4 1.8 6.8 3.3 8.2 4.4 2 1.8 3 3.8 3 6s-.6 3.9-1.9 5.1a14.1 14.1 0 0 1-6.5 3.1l-.6.1v7.8h.8a33.4 33.4 0 0 0 15-4 26 26 0 0 0 13.5-23.2 24 24 0 0 0-6.7-17 27.7 27.7 0 0 0-5.3-4.4Zm7 34.2a24.5 24.5 0 0 1-9.3 9 31.8 31.8 0 0 1-13.5 3.8v-5c3.1-.8 5.3-1.8 6.7-3.3a8.4 8.4 0 0 0 2.4-6.2c0-2.7-1.2-5-3.6-7.1a39.3 39.3 0 0 0-8.6-4.7l-9.2-4.3c-1.6-.8-3.2-1.8-4.7-3a22.7 22.7 0 0 1-10-19.2c0-4.1.8-8 2.5-11.4 1.7-3.5 4-6.3 7-8.4 4-2.8 8.9-4.4 14.7-4.9v5a11 11 0 0 0-5 3 7.8 7.8 0 0 0-2 5.4 9 9 0 0 0 1.6 5.4c1 1.4 2.8 2.9 5.1 4.2 1.6.8 5 2.5 10.5 5 3.3 1.3 5.8 2.6 7.6 3.8 1.8 1.1 3.4 2.5 5 4.2 4.2 4.5 6.3 9.8 6.3 16 0 4.6-1.2 8.9-3.4 12.7Zm-34.7 2.8c-2-1.8-3.9-4.2-5.4-6.9a36.4 36.4 0 0 1-3.6-8.7 7 7 0 0 0-1.3-3 3 3 0 0 0-2.5-1c-1.1 0-2 .6-2.8 1.5-.7.8-1 1.9-1 3.1v20.3c0 4.6 2 5.5 3.8 5.5 1 0 2-.5 2.7-1.5l1.6-1.6c.2-.1.5-.3 1.2-.3l1.3.3 2.7 1.2c3.7 1.8 7.2 2.7 10.3 2.7h.8v-7.8l-.7-.1c-2.6-.5-5-1.8-7-3.7Zm6.2 10c-2.7-.1-5.6-1-8.8-2.5a41 41 0 0 0-2.9-1.3l-1.8-.3c-.9 0-1.5.2-2 .5-.3.2-.8.6-2 2-.5.6-1 1-1.5 1-.6 0-2.3 0-2.3-4.1v-20.3c0-.9.2-1.6.7-2.2.4-.5 1-.8 1.6-.8.8 0 1.1.2 1.3.4.3.3.7 1 1 2.4.9 3.2 2.1 6.3 3.8 9.1 1.6 2.9 3.5 5.3 5.7 7.3a16 16 0 0 0 7.2 3.9v5Zm17.4-65.4a25.3 25.3 0 0 1 5.4 10.4l.6 2.4c.2.5.6 1 1 1.3a4 4 0 0 0 2.5 1c1.2 0 2.2-.5 3-1.4.7-.8 1-1.8 1-3.1v-18.4c0-1.7-.2-3-.8-3.8a3.1 3.1 0 0 0-2.8-1.5c-1 0-2 .5-2.8 1.5l-1.2 1.7c-.1.2-.3.4-.9.4-.2 0-.7 0-1.5-.4a31.6 31.6 0 0 0-12.8-3.5h-.9v7.5l.6.2c3.8 1 7 2.8 9.6 5.7Zm-8.6-11.8c1.8.2 3.4.5 4.7.8a55 55 0 0 1 6.8 2.5c2.6 1 3.8.2 4.3-.5l1.2-1.6c.6-.9 1.1-1 1.5-1 1 0 1.3.5 1.5.8.3.4.6 1.2.6 3v18.4a3 3 0 0 1-.7 2.1 2.5 2.5 0 0 1-3.3.2c-.2-.2-.5-.4-.6-.8l-.5-2a26.8 26.8 0 0 0-5.7-11.2c-2.7-2.9-6-5-9.8-6v-4.7Zm53 .7a36 36 0 0 0-18 20c-1.9 5.3-2.8 11.3-2.8 17.8 0 13 3.6 23.4 11 30.7a32.4 32.4 0 0 0 20.9 9.6h.8V280l-.6-.2c-1.6-.4-2.7-1.1-3.3-2-.8-1.3-1.2-3.4-1.2-6.5v-49.9c0-2 .3-3.6 1-4.6a7 7 0 0 1 3.6-2.4l.5-.2v-7.4h-.8c-4 .2-7.8 1-11.1 2.6Zm10.3 3.7a8 8 0 0 0-3.8 2.8c-.8 1.3-1.3 3.1-1.3 5.5v49.9c0 3.4.5 5.8 1.5 7.3.7 1.1 2 2 3.6 2.6v4.7c-7.5-.8-14-3.9-19.1-9-7-7-10.5-17-10.5-29.7 0-6.3 1-12.1 2.8-17.2 1.8-5.1 4.6-9.5 8.2-13a29 29 0 0 1 18.7-8.5v4.6Zm16.5-3.7a31 31 0 0 0-11.1-2.5h-.8v7.3l.5.2c1 .4 1.8.7 2.4 1.1.5.4 1 1 1.3 1.7.6 1 1 2.4 1 4.2v49.9c0 2.9-.5 5-1.4 6.5-.4.5-.8 1-1.3 1.3-.4.3-1 .5-2 .7l-.5.2v7.5h.8c8.3-.7 15.4-3.9 21-9.6 7.3-7.3 11-17.6 11-30.7 0-13.3-3.9-23.8-11.5-31.3-2.9-2.9-6-5-9.4-6.5Zm8.8 67.5a30.5 30.5 0 0 1-19.2 9v-4.7l1.9-.8a6 6 0 0 0 1.7-1.8c1-1.7 1.6-4 1.6-7.3v-49.9c0-2-.4-3.8-1.1-5-.5-.9-1.1-1.6-1.8-2a10 10 0 0 0-2.3-1.3v-4.7a29.2 29.2 0 0 1 18.7 8.6c7.3 7.2 11 17.4 11 30.2 0 12.7-3.5 22.6-10.5 29.7Zm75.2-14.6c-1 0-2 .3-2.6 1a7 7 0 0 0-1.4 2.8c-.7 2.1-1.6 4-2.9 5.7a16.2 16.2 0 0 1-4.3 4.2c-3 1.9-6 3-8.7 3.1h-.7v8.4h.8a23.6 23.6 0 0 0 16.6-7.7c2-2 3.7-4.3 5-6.8 1.3-2.5 2-4.6 2-6.4 0-1.2-.4-2.2-1-3a3.6 3.6 0 0 0-2.8-1.3Zm.5 10a27.6 27.6 0 0 1-12 11.7c-2.2 1-4.8 1.7-7.5 1.9v-5.3c2.7-.3 5.6-1.5 8.6-3.3 1.8-1.2 3.4-2.7 4.8-4.5 1.3-2 2.4-4 3-6.2.5-1.3.9-2 1.1-2.2.4-.4.9-.6 1.5-.6a2 2 0 0 1 1.6.8c.4.5.7 1.2.7 2 0 1.5-.6 3.4-1.8 5.7Zm-38.2-62.1a35.4 35.4 0 0 0-17.6 21.7 53.1 53.1 0 0 0-2.3 16c0 7.7 1.2 14.5 3.6 20.1 2.4 5.7 6 10.3 10.7 13.7a32 32 0 0 0 19 5.8h.8v-8.3h-.7l-2.5-.6c-.5-.3-1-.8-1.6-1.4-.5-.6-.9-1.4-1.2-2.2-.3-.9-.5-1.7-.5-2.5v-48.4c0-2.8.5-5 1.5-6.4a6 6 0 0 1 4.3-2.6h.7v-8.2l-2-.1c-4 0-8 1.1-12.2 3.4Zm12.6 3.5c-2 .5-3.6 1.5-4.7 3.1a13.1 13.1 0 0 0-1.7 7.3v48.4c0 1 .2 2 .6 3 .3 1 .8 2 1.4 2.7.7.8 1.4 1.4 2.2 1.8.6.2 1.3.5 2.2.6v5.3c-6.6-.1-12.4-2-17.3-5.5-4.5-3.2-8-7.5-10.2-13-2.3-5.4-3.4-12-3.4-19.5 0-5.5.7-10.7 2.2-15.5a33.8 33.8 0 0 1 16.8-20.9c4-2 7.8-3.2 11.4-3.2h.5v5.4Zm9.3 3c1.2.7 2.6 1.8 3.9 3.2 1.9 2.1 3.7 5 5.2 8.4a48 48 0 0 1 2.2 6.8c.4 1.4.9 2.4 1.5 3.1.7.8 1.6 1.1 2.7 1.1 1 0 2-.4 2.8-1.2.8-.8 1.2-2 1.2-3.8v-23.2c0-1.3-.3-2.4-1-3.1a3.7 3.7 0 0 0-2.9-1.1c-1.9 0-2.7 1-3.1 1.7l-.7 1.3c-.4.7-1 1-1.8 1-.3 0-1.1 0-3.4-.9-3-1-5-1.8-6.2-2.1a38 38 0 0 0-4.4-1l-1-.1v8.3h.7c1.6.3 3 .8 4.3 1.5Zm-3.4-8.1a126.7 126.7 0 0 1 9.4 2.9c2.7 1 3.6 1 4 1 1.4 0 2.4-.6 3.1-1.8l.8-1.4c.1-.4.5-.9 1.7-.9.8 0 1.4.2 1.7.6.4.5.7 1.2.7 2.1v23.2c0 1.3-.3 2.2-.8 2.7s-1 .8-1.7.8a2 2 0 0 1-1.6-.6c-.4-.5-.8-1.3-1-2.5-.9-3-1.6-5.3-2.4-7a32.6 32.6 0 0 0-5.5-8.8 18.8 18.8 0 0 0-4.3-3.6c-1.2-.7-2.6-1.3-4-1.5v-5.2Zm40.1-.2a16 16 0 0 0-5.3.4c-.7.3-1.3.8-1.7 1.5a4 4 0 0 0-.6 2.1c0 .8.2 1.5.6 2 .4.7 1 1.1 1.7 1.4l2.1.8c.7.2 1.2.5 1.7 1a17 17 0 0 1 1.8 2.8l37.4 65.2.2.4h16.2v-25.6l-29.5-52h-24.6Zm52.6 76H368l-37.1-64.8a18 18 0 0 0-2.1-3 5.3 5.3 0 0 0-2.3-1.5l-2.1-.8c-.4-.1-.7-.4-1-.7a2 2 0 0 1-.3-1.2c0-.5.1-1 .4-1.3a2 2 0 0 1 1-.9c.2 0 1.1-.3 4.7-.3H353l28.9 51v23.5Zm8.9-75c-.8-.7-2.2-1-4.3-1h-13.7c-1.6 0-2.8.2-3.6.8-.8.6-1.3 1.6-1.3 2.8 0 .9.2 1.6.6 2.1.4.6 1 1 1.9 1.5 2.1 1 3.6 2.4 4.4 3.9.9 1.5 1.3 3.8 1.3 6.8v15.6l7.3 12.7v-28.3c0-2.5.4-4.5 1-5.9a9 9 0 0 1 4-4.2 10 10 0 0 0 2.8-1.8c.5-.5.7-1.3.7-2.3 0-1-.4-1.9-1.1-2.6Zm-.8 4c-.1.2-.6.6-2.2 1.4-2.1 1-3.7 2.8-4.8 5-.7 1.6-1.1 3.8-1.1 6.5v22.6l-4.3-7.4v-15.2a16 16 0 0 0-1.4-7.5c-1-1.8-2.7-3.4-5.1-4.6-.8-.4-1.2-.7-1.3-1-.2-.3-.3-.7-.3-1.2 0-.7.2-1.2.6-1.5.4-.3 1.1-.6 2.7-.6h13.7c2.2 0 3 .4 3.2.7.4.4.7 1 .7 1.5 0 .6-.1 1-.4 1.3Zm-46.4 65.8-1.6-1c-1.8-1-3-2.2-3.8-3.8-.8-1.5-1.2-3.6-1.2-6v-30.1l-7.4-12.4v42.5c0 5-1.6 8.2-4.9 10-1.3.8-2 1.3-2.5 1.8a3 3 0 0 0-.7 2.1c0 1.7 1 3.7 5.8 3.7h12.7c2 0 3.4-.3 4.1-1 .9-.6 1.3-1.5 1.3-2.6 0-1.4-.6-2.5-1.8-3.2Zm-.5 4.7c-.2.2-1 .5-3.1.5h-12.7c-4.3 0-4.3-1.6-4.3-2.1s.2-.8.4-1a9 9 0 0 1 2-1.5c3.8-2.1 5.7-6 5.7-11.4v-36.9l4.3 7.2v29.7c0 2.7.5 5 1.4 6.7a11 11 0 0 0 4.4 4.5l1.6 1c.8.3 1 1 1 1.8 0 .6-.1 1-.7 1.5Z"/>
</svg>